<mxfile host="app.diagrams.net" agent="Mozilla/5.0 (Macintosh; Intel Mac OS X 10_15_7) AppleWebKit/537.36 (KHTML, like Gecko) Chrome/130.0.0.0 Safari/537.36" version="24.8.4">
  <diagram name="Page-1" id="lWE799VbQH_UFQsiBBuo">
    <mxGraphModel dx="1900" dy="1155" grid="1" gridSize="10" guides="1" tooltips="1" connect="1" arrows="1" fold="1" page="1" pageScale="1" pageWidth="1920" pageHeight="1200" math="0" shadow="0">
      <root>
        <mxCell id="0" />
        <mxCell id="1" parent="0" />
        <mxCell id="AVDN5haBnFGdri4YZpMs-62" value="" style="rounded=0;whiteSpace=wrap;html=1;fillColor=#FF6310;strokeColor=none;fontSize=30;" parent="1" vertex="1">
          <mxGeometry x="670" y="230" width="430" height="100" as="geometry" />
        </mxCell>
        <mxCell id="AVDN5haBnFGdri4YZpMs-24" value="" style="rounded=0;whiteSpace=wrap;html=1;fillColor=#caeff6;strokeColor=none;fontSize=30;" parent="1" vertex="1">
          <mxGeometry x="1580" y="790" width="220" height="210" as="geometry" />
        </mxCell>
        <mxCell id="AVDN5haBnFGdri4YZpMs-28" value="" style="rounded=0;whiteSpace=wrap;html=1;strokeWidth=4;sketch=1;curveFitting=1;jiggle=2;fillColor=none;fontSize=30;" parent="1" vertex="1">
          <mxGeometry x="1580" y="790" width="220" height="210" as="geometry" />
        </mxCell>
        <mxCell id="AVDN5haBnFGdri4YZpMs-18" value="" style="rounded=0;whiteSpace=wrap;html=1;fillColor=#caeff6;strokeColor=none;fontSize=30;" parent="1" vertex="1">
          <mxGeometry x="1400" y="141.25" width="400" height="247.5" as="geometry" />
        </mxCell>
        <mxCell id="AVDN5haBnFGdri4YZpMs-5" value="" style="rounded=0;whiteSpace=wrap;html=1;strokeWidth=4;strokeColor=#000000;fillColor=none;sketch=1;curveFitting=1;jiggle=2;fontSize=30;" parent="1" vertex="1">
          <mxGeometry x="440" y="110" width="840" height="310" as="geometry" />
        </mxCell>
        <mxCell id="AVDN5haBnFGdri4YZpMs-3" value="GX Cloud&lt;br style=&quot;font-size: 30px;&quot;&gt;storage" style="rounded=1;whiteSpace=wrap;html=1;fontSize=30;strokeColor=#ff6310;strokeWidth=8;fillColor=#ffd4be;" parent="1" vertex="1">
          <mxGeometry x="800" y="180" width="170" height="200" as="geometry" />
        </mxCell>
        <mxCell id="AVDN5haBnFGdri4YZpMs-6" value="GX Cloud" style="text;html=1;strokeColor=none;fillColor=none;align=left;verticalAlign=top;whiteSpace=wrap;rounded=0;fontSize=30;spacing=10;spacingLeft=20;" parent="1" vertex="1">
          <mxGeometry x="440" y="110" width="190" height="50" as="geometry" />
        </mxCell>
        <mxCell id="AVDN5haBnFGdri4YZpMs-7" value="Jupyter notebook" style="text;html=1;strokeColor=none;fillColor=none;align=center;verticalAlign=middle;whiteSpace=wrap;rounded=0;fontSize=30;" parent="1" vertex="1">
          <mxGeometry x="447.5" y="1020" width="275" height="40" as="geometry" />
        </mxCell>
        <mxCell id="AVDN5haBnFGdri4YZpMs-8" value="Python script" style="text;html=1;strokeColor=none;fillColor=none;align=center;verticalAlign=middle;whiteSpace=wrap;rounded=0;fontSize=30;" parent="1" vertex="1">
          <mxGeometry x="820" y="1020" width="200" height="40" as="geometry" />
        </mxCell>
        <mxCell id="AVDN5haBnFGdri4YZpMs-9" value="Orchestrator DAG" style="text;html=1;strokeColor=none;fillColor=none;align=center;verticalAlign=middle;whiteSpace=wrap;rounded=0;fontSize=30;" parent="1" vertex="1">
          <mxGeometry x="1264" y="1020" width="270" height="40" as="geometry" />
        </mxCell>
        <mxCell id="AVDN5haBnFGdri4YZpMs-10" value="" style="shape=image;verticalLabelPosition=bottom;labelBackgroundColor=default;verticalAlign=top;aspect=fixed;imageAspect=0;image=data:image/svg+xml,PHN2ZyB4bWxucz0iaHR0cDovL3d3dy53My5vcmcvMjAwMC9zdmciIHZpZXdCb3g9IjAgMCAxMjggMTI4IiBkYXRhLW5hbWU9IkxheWVyIDEiIGlkPSJMYXllcl8xIj4mI3hhOyAgPHBhdGggZD0iTTExNS4yOSwxMDIuNjNjMCw1LjgzLTEuNzcsMTAuNDMtNS4zMiwxMy44LTMuNTUsMy4zOC04LjI2LDUuMDYtMTQuMTMsNS4wNmgtNjMuNjdjLTUuODgsMC0xMC41OS0xLjY5LTE0LjEzLTUuMDYtMy41NS0zLjM4LTUuMzItNy45OC01LjMyLTEzLjgsMC0yLjU3LjA4LTUuMDkuMjUtNy41NC4xNy0yLjQ1LjUxLTUuMSwxLjAyLTcuOTRzMS4xNS01LjQ4LDEuOTMtNy45Yy43OC0yLjQzLDEuODItNC44LDMuMTMtNy4xLDEuMzEtMi4zMSwyLjgyLTQuMjcsNC41Mi01LjksMS43LTEuNjMsMy43OC0yLjkzLDYuMjMtMy45LDIuNDUtLjk3LDUuMTYtMS40Niw4LjEyLTEuNDYuNDQsMCwxLjQ2LjUyLDMuMDYsMS41NywxLjYsMS4wNCwzLjQxLDIuMjEsNS40MywzLjUsMi4wMiwxLjI5LDQuNjQsMi40NSw3Ljg3LDMuNSwzLjIzLDEuMDQsNi40NywxLjU3LDkuNzMsMS41N3M2LjUtLjUyLDkuNzMtMS41N2MzLjIzLTEuMDQsNS44NS0yLjIxLDcuODctMy41LDIuMDItMS4yOSwzLjgyLTIuNDUsNS40My0zLjUsMS42LTEuMDQsMi42Mi0xLjU3LDMuMDYtMS41NywyLjk2LDAsNS42Ny40OSw4LjEyLDEuNDYsMi40NS45Nyw0LjUzLDIuMjcsNi4yMywzLjksMS43LDEuNjMsMy4yMSwzLjU5LDQuNTIsNS45LDEuMzEsMi4zMSwyLjM2LDQuNjcsMy4xMyw3LjEuNzgsMi40MywxLjQyLDUuMDYsMS45Myw3LjlzLjg1LDUuNDksMS4wMiw3Ljk0Yy4xNywyLjQ1LjI1LDQuOTcuMjUsNy41NFoiLz4mI3hhOyAgPHBhdGggZD0iTTkxLjk3LDMyLjQ3YzAsNy43Mi0yLjczLDE0LjMxLTguMiwxOS43OC01LjQ2LDUuNDYtMTIuMDYsOC4yLTE5Ljc4LDguMnMtMTQuMzEtMi43My0xOS43OC04LjJjLTUuNDYtNS40Ni04LjItMTIuMDYtOC4yLTE5Ljc4czIuNzMtMTQuMzEsOC4yLTE5Ljc4YzUuNDYtNS40NiwxMi4wNi04LjIsMTkuNzgtOC4yczE0LjMxLDIuNzMsMTkuNzgsOC4yYzUuNDYsNS40Niw4LjIsMTIuMDYsOC4yLDE5Ljc4WiIvPiYjeGE7PC9zdmc+;fontSize=30;" parent="1" vertex="1">
          <mxGeometry x="536" y="1075" width="98" height="98" as="geometry" />
        </mxCell>
        <mxCell id="AVDN5haBnFGdri4YZpMs-11" value="" style="shape=image;verticalLabelPosition=bottom;labelBackgroundColor=default;verticalAlign=top;aspect=fixed;imageAspect=0;image=data:image/svg+xml,PHN2ZyB4bWxucz0iaHR0cDovL3d3dy53My5vcmcvMjAwMC9zdmciIHZpZXdCb3g9IjAgMCAxMjggMTI4IiBkYXRhLW5hbWU9IkxheWVyIDEiIGlkPSJMYXllcl8xIj4mI3hhOyAgPHBhdGggZD0iTS42Niw3NC45MmMuMi0uNy4zOC0xLjQxLjYtMi4xMSwxLjY1LTUuMTYsNi4zNS04LjcsMTEuNzgtOC43OCw0LjUzLS4wNiw5LjA3LS4wNywxMy42LjAyLDMuMTcuMDYsNS44OCwxLjMyLDguMjIsMy42MS04LjM2LDQuOS0xMy4zMiwxMi4wNy0xNC44NywyMS42NC0zLjExLDAtNi4xNiwwLTkuMiwwLTEuMiwwLTIuMzkuMDEtMy41OSwwLTMuMDgtLjAzLTUuMjQtMS41Ny02LjI4LTQuNDYtLjA3LS4xOC0uMTgtLjM1LS4yNy0uNTIsMC0zLjEzLDAtNi4yNywwLTkuNFoiLz4mI3hhOyAgPHBhdGggZD0iTTYzLjk3LDEwOC4zMWMtOS4yNywwLTE4LjU1LDAtMjcuODIsMC02LjE0LDAtMTAuMTUtMy45OC0xMC4xNy0xMC4xMSwwLTMuNjYtLjIxLTcuMzQuNzYtMTAuOTMsMi44LTEwLjM1LDEyLjMtMTcuMzUsMjMuMDMtMTYuOTQuNTEuMDIsMS4wNS4yLDEuNTMuNCw4LjQ3LDMuNjgsMTYuODksMy41NywyNS40NC4wNywxLjcyLS43LDMuOTktLjQ4LDUuOTItLjE2LDEwLjk0LDEuODMsMTguNDQsMTAuMTMsMTkuMjQsMjEuMTcuMTgsMi40Mi4xOCw0Ljg3LjA0LDcuMjktLjMsNS40OC00LjMsOS4yLTkuNzksOS4yMS05LjQuMDItMTguNzksMC0yOC4xOSwwWiIvPiYjeGE7ICA8cGF0aCBkPSJNODYuMTYsNDEuODRjLS4wMSwxMi4yMi05Ljk3LDIyLjE3LTIyLjE4LDIyLjE3LTEyLjIxLDAtMjIuMTYtOS45Ny0yMi4xNi0yMi4xOSwwLTEyLjIzLDkuOTMtMjIuMTQsMjIuMTgtMjIuMTMsMTIuMjcsMCwyMi4xOCw5LjkxLDIyLjE2LDIyLjE1WiIvPiYjeGE7ICA8cGF0aCBkPSJNOTMuMTEsNjcuNjRjMi4zNS0yLjI0LDUuMDMtMy41Miw4LjE2LTMuNTksNC42Mi0uMDksOS4yMy0uMSwxMy44NS0uMDEsNi41LjEyLDExLjkzLDUuNSwxMi4xNiwxMS45OS4wOSwyLjM5LjA3LDQuNzguMDEsNy4xNy0uMDksMy4zNi0yLjc1LDYuMDMtNi4xMSw2LjA4LTQuMTIuMDYtOC4yNC4wMS0xMi4zNy4wMy0uNjMsMC0uOTQtLjEzLTEuMDYtLjg0LTEuNTUtOC45OC02LjMyLTE1Ljc2LTE0LjExLTIwLjQ2LS4xNC0uMDgtLjI3LS4xOC0uNTQtLjM2WiIvPiYjeGE7ICA8cGF0aCBkPSJNMTIwLjk1LDQ1YzAsNy4wMS01LjYzLDEyLjYzLTEyLjY0LDEyLjYzLTYuOTgsMC0xMi42Ni01LjY3LTEyLjY1LTEyLjY1LDAtNi45OCw1LjY4LTEyLjYzLDEyLjY3LTEyLjYzLDcuMDEsMCwxMi42NCw1LjY0LDEyLjYzLDEyLjY0WiIvPiYjeGE7ICA8cGF0aCBkPSJNNy4wMiw0NS4wM2MtLjAyLTcuMDEsNS42LTEyLjY2LDEyLjYtMTIuNjgsNy0uMDIsMTIuNjgsNS42MywxMi43LDEyLjYuMDEsNi45OC01LjY0LDEyLjY2LTEyLjYyLDEyLjY4LTcuMDEuMDEtMTIuNjUtNS41OS0xMi42OC0xMi42WiIvPiYjeGE7PC9zdmc+;fontSize=30;" parent="1" vertex="1">
          <mxGeometry x="200" y="216" width="128" height="128" as="geometry" />
        </mxCell>
        <mxCell id="AVDN5haBnFGdri4YZpMs-12" value="" style="shape=image;verticalLabelPosition=bottom;labelBackgroundColor=default;verticalAlign=top;aspect=fixed;imageAspect=0;image=data:image/svg+xml,PHN2ZyB4bWxucz0iaHR0cDovL3d3dy53My5vcmcvMjAwMC9zdmciIHZpZXdCb3g9IjAgMCAxMjggMTI4IiBkYXRhLW5hbWU9IkxheWVyIDEiIGlkPSJMYXllcl8xIj4mI3hhOyAgPHBhdGggZD0iTTEyNC44OSw5Mi44Yy0uMDYuMS0uMTUuMTktLjE4LjMtMS4yNyw0Ljg2LTQuNSw3LjM4LTkuNTQsNy4zOS03Ljc3LjAxLTE1LjUzLDAtMjMuMywwLTMuMTcsMC02LjMzLDAtOS41OCwwLDAtMi42NC0uMDEtNS4xOSwwLTcuNzUuMDMtNC40Mi0uNzEtOC43LTIuNzgtMTIuNjMtMS4zLTIuNDctMi45My00Ljc2LTQuNDgtNy4yNCwxLjg0LTEuMTUsNC4wNC0xLjk0LDYuMzYtMi40LDIuMzEtLjQ2LDQuNTctLjUsNi45LjIzLDMuOTgsMS4yNiw4LjA5LDEuMzMsMTIuMDYuMDYsMy4yOS0xLjA1LDYuNDUtLjc1LDkuNTQuMyw4LjMxLDIuODEsMTMuMjMsOC42MiwxNC43NiwxNy4yNy4wNS4zLjE1LjYuMjMuOXYzLjU3WiIvPiYjeGE7ICA8cGF0aCBkPSJNMzkuNjIsMTA2LjU4Yy04Ljg4LDAtMTcuNzUsMC0yNi42MywwLTYuMDcsMC05Ljg3LTMuNzktOS44Ni05Ljg1LDAtMy42LS4yMS03LjIuODItMTAuNzMsMi44NC05Ljc3LDExLjg4LTE2LjMzLDIyLjA2LTE1LjkzLjQ5LjAyLDEuMDEuMTksMS40Ny4zOSw4LjEsMy41MSwxNi4yLDMuNTYsMjQuMywwLDEuODItLjgsMy42OS0uNDIsNS41LS4xNywxMC43NywxLjQ4LDE4LjczLDEwLjU0LDE4Ljg4LDIxLjM5LjAzLDEuODIuMDIsMy42NCwwLDUuNDctLjA0LDUuNTMtMy45Miw5LjQyLTkuNDQsOS40My05LjAzLjAyLTE4LjA3LDAtMjcuMSwwWiIvPiYjeGE7ICA8cGF0aCBkPSJNMzkuNjUsMjEuNDFjMTEuODEsMCwyMS4yOSw5LjQ4LDIxLjI5LDIxLjI4LDAsMTEuNzgtOS41MywyMS4zMS0yMS4yOSwyMS4zMS0xMS43NCwwLTIxLjMtOS41Ni0yMS4zLTIxLjMyLDAtMTEuNzcsOS41My0yMS4yOCwyMS4zMS0yMS4yN1oiLz4mI3hhOyAgPHBhdGggZD0iTTk0LjQ3LDY0Yy0xMC4wNi4wMS0xOC4zMi04LjI0LTE4LjMtMTguMzEuMDItMTAuMDIsOC4yMy0xOC4yMiwxOC4yNS0xOC4yNCwxMC4wNy0uMDEsMTguMzMsOC4yNCwxOC4zMSwxOC4zLS4wMiwxMC4wMi04LjIzLDE4LjIzLTE4LjI1LDE4LjI0WiIvPiYjeGE7PC9zdmc+;fontSize=30;" parent="1" vertex="1">
          <mxGeometry x="1344" y="1060" width="128" height="128" as="geometry" />
        </mxCell>
        <mxCell id="AVDN5haBnFGdri4YZpMs-13" value="" style="endArrow=blockThin;html=1;rounded=0;entryX=0;entryY=0.5;entryDx=0;entryDy=0;strokeWidth=4;endFill=1;fontSize=30;" parent="1" target="AVDN5haBnFGdri4YZpMs-2" edge="1">
          <mxGeometry width="50" height="50" relative="1" as="geometry">
            <mxPoint x="340" y="280" as="sourcePoint" />
            <mxPoint x="615" y="280" as="targetPoint" />
          </mxGeometry>
        </mxCell>
        <mxCell id="AVDN5haBnFGdri4YZpMs-14" value="Create, edit, and manage data quality definitions and trigger data validation using the UI." style="text;html=1;strokeColor=none;fillColor=none;align=left;verticalAlign=middle;whiteSpace=wrap;rounded=0;fontSize=30;" parent="1" vertex="1">
          <mxGeometry x="13" y="350" width="420" height="90" as="geometry" />
        </mxCell>
        <mxCell id="AVDN5haBnFGdri4YZpMs-15" value="" style="shape=image;verticalLabelPosition=bottom;labelBackgroundColor=default;verticalAlign=top;aspect=fixed;imageAspect=0;image=data:image/svg+xml,PHN2ZyB4bWxucz0iaHR0cDovL3d3dy53My5vcmcvMjAwMC9zdmciIHZpZXdCb3g9IjAgMCAyNTYgMjU2IiBkYXRhLW5hbWU9IkxheWVyIDEiIGlkPSJMYXllcl8xIj4mI3hhOyAgPGcgaWQ9ImRhdGFiYXNlX2ljb24iPiYjeGE7ICAgIDxwYXRoIGQ9Ik0xMjIuOTEsMTguMDhsMTAuMTUtLjA1Yy4zNiwwLC42OS4xNSwxLjA1LjE2LDE3LjYzLjUsMzUuMjksMi44NCw1Mi4wNCw4LjQ3LDEzLjQ4LDQuNTMsMzQuNDksMTQuNTYsMzcuNjksMjkuOTYsMy45NywxOS4xMy0xOS41LDMxLjY4LTM0LjIzLDM3LjEyLTMwLjk5LDExLjQ1LTcxLjMzLDEyLjUxLTEwMy40OCw1LjU3LTE3LjEtMy42OS00Ni40My0xMy41LTUyLjg3LTMxLjY0czE0LjItMzEuNzMsMjguNDgtMzcuOGMxOS4xLTguMTMsNDAuNS0xMS4xLDYxLjE4LTExLjc5WiIvPiYjeGE7ICAgIDxwYXRoIGQ9Ik0yMjQuMTgsMTk2LjcyYy0xLjM1LDE0LjA2LTE5LjgzLDI0LjQ1LTMxLjQ3LDI5LjE4LTM0LjQ2LDE0LjAxLTg0LjQzLDE0LjM0LTExOS43NSwzLjMxLTE0Ljc3LTQuNjEtMzkuODktMTUuODEtNDAuOTMtMzMuODZ2LTMxLjdzMS4wNyw0LjE4LDEuMDcsNC4xOGM1LjY2LDE2Ljc4LDMxLjIxLDI2LjYsNDYuOTEsMzAuNjIsMjkuOCw3LjYxLDY1Ljc5LDcuNjgsOTUuNjIuMTgsMTUuNzctMy45Niw0Mi4xNS0xMy45OCw0Ny42NC0zMC45NWwuOTEtMy41OHYzMi42MVoiLz4mI3hhOyAgICA8cGF0aCBkPSJNMjI0LjE4LDEwNy44Yy0xLjMzLDE0LjU1LTIxLjA3LDI1LjE5LTMzLjEsMjkuODMtMzQuNzksMTMuNDItODMuNzksMTMuNjgtMTE5LjE4LDIuMzYtMTQuNC00LjYxLTM4LjgxLTE1Ljg1LTM5Ljg3LTMzLjR2LTMxLjdzMS4yMiw0LjQ5LDEuMjIsNC40OWM2LjM2LDE3LjU3LDM0LjEyLDI3LjM2LDUwLjc3LDMxLjE2LDI3Ljk5LDYuMzksNjAuMzMsNi4zNyw4OC4zMiwwLDE2LjUyLTMuNzYsNDQuNTMtMTMuNzIsNTAuNzMtMzEuMmwxLjEtNC4xNHYzMi42MVoiLz4mI3hhOyAgICA8cGF0aCBkPSJNMjI0LjE4LDE1Mi4zM2MtMS4zMiwxMy43MS0xOS40OSwyNC4yMS0zMC44NiwyOC44OC0zNC41OCwxNC4xOS04NC42OCwxNC42OS0xMjAuMiwzLjYyLTE0Ljc0LTQuNTktNDAuMDQtMTUuODUtNDEuMDktMzMuODZ2LTMxLjdzMS40MSw1LjA2LDEuNDEsNS4wNmM2LjA4LDE1Ljg2LDMwLjAyLDI1LjIzLDQ1LjIsMjkuMjksMzAuNTEsOC4xNiw2Ny40Miw4LjIxLDk3Ljk5LjI3LDE1LjUxLTQuMDMsNDAuMjktMTMuNTEsNDYuMzMtMjkuODJsMS4yMS00LjQ5djMyLjc2WiIvPiYjeGE7ICA8L2c+JiN4YTs8L3N2Zz4=;fontSize=30;" parent="1" vertex="1">
          <mxGeometry x="1430" y="197.5" width="135" height="135" as="geometry" />
        </mxCell>
        <mxCell id="AVDN5haBnFGdri4YZpMs-16" value="" style="shape=image;verticalLabelPosition=bottom;labelBackgroundColor=default;verticalAlign=top;aspect=fixed;imageAspect=0;image=data:image/svg+xml,PHN2ZyB4bWxucz0iaHR0cDovL3d3dy53My5vcmcvMjAwMC9zdmciIHZpZXdCb3g9IjAgMCAyNTYgMjU2IiBkYXRhLW5hbWU9IkxheWVyIDEiIGlkPSJMYXllcl8xIj4mI3hhOyAgPGcgaWQ9ImRhdGFiYXNlX2ljb24iPiYjeGE7ICAgIDxwYXRoIGQ9Ik0xMjIuOTEsMTguMDhsMTAuMTUtLjA1Yy4zNiwwLC42OS4xNSwxLjA1LjE2LDE3LjYzLjUsMzUuMjksMi44NCw1Mi4wNCw4LjQ3LDEzLjQ4LDQuNTMsMzQuNDksMTQuNTYsMzcuNjksMjkuOTYsMy45NywxOS4xMy0xOS41LDMxLjY4LTM0LjIzLDM3LjEyLTMwLjk5LDExLjQ1LTcxLjMzLDEyLjUxLTEwMy40OCw1LjU3LTE3LjEtMy42OS00Ni40My0xMy41LTUyLjg3LTMxLjY0czE0LjItMzEuNzMsMjguNDgtMzcuOGMxOS4xLTguMTMsNDAuNS0xMS4xLDYxLjE4LTExLjc5WiIvPiYjeGE7ICAgIDxwYXRoIGQ9Ik0yMjQuMTgsMTk2LjcyYy0xLjM1LDE0LjA2LTE5LjgzLDI0LjQ1LTMxLjQ3LDI5LjE4LTM0LjQ2LDE0LjAxLTg0LjQzLDE0LjM0LTExOS43NSwzLjMxLTE0Ljc3LTQuNjEtMzkuODktMTUuODEtNDAuOTMtMzMuODZ2LTMxLjdzMS4wNyw0LjE4LDEuMDcsNC4xOGM1LjY2LDE2Ljc4LDMxLjIxLDI2LjYsNDYuOTEsMzAuNjIsMjkuOCw3LjYxLDY1Ljc5LDcuNjgsOTUuNjIuMTgsMTUuNzctMy45Niw0Mi4xNS0xMy45OCw0Ny42NC0zMC45NWwuOTEtMy41OHYzMi42MVoiLz4mI3hhOyAgICA8cGF0aCBkPSJNMjI0LjE4LDEwNy44Yy0xLjMzLDE0LjU1LTIxLjA3LDI1LjE5LTMzLjEsMjkuODMtMzQuNzksMTMuNDItODMuNzksMTMuNjgtMTE5LjE4LDIuMzYtMTQuNC00LjYxLTM4LjgxLTE1Ljg1LTM5Ljg3LTMzLjR2LTMxLjdzMS4yMiw0LjQ5LDEuMjIsNC40OWM2LjM2LDE3LjU3LDM0LjEyLDI3LjM2LDUwLjc3LDMxLjE2LDI3Ljk5LDYuMzksNjAuMzMsNi4zNyw4OC4zMiwwLDE2LjUyLTMuNzYsNDQuNTMtMTMuNzIsNTAuNzMtMzEuMmwxLjEtNC4xNHYzMi42MVoiLz4mI3hhOyAgICA8cGF0aCBkPSJNMjI0LjE4LDE1Mi4zM2MtMS4zMiwxMy43MS0xOS40OSwyNC4yMS0zMC44NiwyOC44OC0zNC41OCwxNC4xOS04NC42OCwxNC42OS0xMjAuMiwzLjYyLTE0Ljc0LTQuNTktNDAuMDQtMTUuODUtNDEuMDktMzMuODZ2LTMxLjdzMS40MSw1LjA2LDEuNDEsNS4wNmM2LjA4LDE1Ljg2LDMwLjAyLDI1LjIzLDQ1LjIsMjkuMjksMzAuNTEsOC4xNiw2Ny40Miw4LjIxLDk3Ljk5LjI3LDE1LjUxLTQuMDMsNDAuMjktMTMuNTEsNDYuMzMtMjkuODJsMS4yMS00LjQ5djMyLjc2WiIvPiYjeGE7ICA8L2c+JiN4YTs8L3N2Zz4=;fontSize=30;" parent="1" vertex="1">
          <mxGeometry x="1550" y="152.5" width="135" height="135" as="geometry" />
        </mxCell>
        <mxCell id="AVDN5haBnFGdri4YZpMs-17" value="" style="shape=image;verticalLabelPosition=bottom;labelBackgroundColor=default;verticalAlign=top;aspect=fixed;imageAspect=0;image=data:image/svg+xml,PHN2ZyB4bWxucz0iaHR0cDovL3d3dy53My5vcmcvMjAwMC9zdmciIHZpZXdCb3g9IjAgMCAyNTYgMjU2IiBkYXRhLW5hbWU9IkxheWVyIDEiIGlkPSJMYXllcl8xIj4mI3hhOyAgPGcgaWQ9ImRhdGFiYXNlX2ljb24iPiYjeGE7ICAgIDxwYXRoIGQ9Ik0xMjIuOTEsMTguMDhsMTAuMTUtLjA1Yy4zNiwwLC42OS4xNSwxLjA1LjE2LDE3LjYzLjUsMzUuMjksMi44NCw1Mi4wNCw4LjQ3LDEzLjQ4LDQuNTMsMzQuNDksMTQuNTYsMzcuNjksMjkuOTYsMy45NywxOS4xMy0xOS41LDMxLjY4LTM0LjIzLDM3LjEyLTMwLjk5LDExLjQ1LTcxLjMzLDEyLjUxLTEwMy40OCw1LjU3LTE3LjEtMy42OS00Ni40My0xMy41LTUyLjg3LTMxLjY0czE0LjItMzEuNzMsMjguNDgtMzcuOGMxOS4xLTguMTMsNDAuNS0xMS4xLDYxLjE4LTExLjc5WiIvPiYjeGE7ICAgIDxwYXRoIGQ9Ik0yMjQuMTgsMTk2LjcyYy0xLjM1LDE0LjA2LTE5LjgzLDI0LjQ1LTMxLjQ3LDI5LjE4LTM0LjQ2LDE0LjAxLTg0LjQzLDE0LjM0LTExOS43NSwzLjMxLTE0Ljc3LTQuNjEtMzkuODktMTUuODEtNDAuOTMtMzMuODZ2LTMxLjdzMS4wNyw0LjE4LDEuMDcsNC4xOGM1LjY2LDE2Ljc4LDMxLjIxLDI2LjYsNDYuOTEsMzAuNjIsMjkuOCw3LjYxLDY1Ljc5LDcuNjgsOTUuNjIuMTgsMTUuNzctMy45Niw0Mi4xNS0xMy45OCw0Ny42NC0zMC45NWwuOTEtMy41OHYzMi42MVoiLz4mI3hhOyAgICA8cGF0aCBkPSJNMjI0LjE4LDEwNy44Yy0xLjMzLDE0LjU1LTIxLjA3LDI1LjE5LTMzLjEsMjkuODMtMzQuNzksMTMuNDItODMuNzksMTMuNjgtMTE5LjE4LDIuMzYtMTQuNC00LjYxLTM4LjgxLTE1Ljg1LTM5Ljg3LTMzLjR2LTMxLjdzMS4yMiw0LjQ5LDEuMjIsNC40OWM2LjM2LDE3LjU3LDM0LjEyLDI3LjM2LDUwLjc3LDMxLjE2LDI3Ljk5LDYuMzksNjAuMzMsNi4zNyw4OC4zMiwwLDE2LjUyLTMuNzYsNDQuNTMtMTMuNzIsNTAuNzMtMzEuMmwxLjEtNC4xNHYzMi42MVoiLz4mI3hhOyAgICA8cGF0aCBkPSJNMjI0LjE4LDE1Mi4zM2MtMS4zMiwxMy43MS0xOS40OSwyNC4yMS0zMC44NiwyOC44OC0zNC41OCwxNC4xOS04NC42OCwxNC42OS0xMjAuMiwzLjYyLTE0Ljc0LTQuNTktNDAuMDQtMTUuODUtNDEuMDktMzMuODZ2LTMxLjdzMS40MSw1LjA2LDEuNDEsNS4wNmM2LjA4LDE1Ljg2LDMwLjAyLDI1LjIzLDQ1LjIsMjkuMjksMzAuNTEsOC4xNiw2Ny40Miw4LjIxLDk3Ljk5LjI3LDE1LjUxLTQuMDMsNDAuMjktMTMuNTEsNDYuMzMtMjkuODJsMS4yMS00LjQ5djMyLjc2WiIvPiYjeGE7ICA8L2c+JiN4YTs8L3N2Zz4=;fontSize=30;" parent="1" vertex="1">
          <mxGeometry x="1660" y="225" width="135" height="135" as="geometry" />
        </mxCell>
        <mxCell id="AVDN5haBnFGdri4YZpMs-19" value="" style="rounded=0;whiteSpace=wrap;html=1;strokeWidth=4;sketch=1;curveFitting=1;jiggle=2;fillColor=none;fontSize=30;" parent="1" vertex="1">
          <mxGeometry x="1400" y="138.75" width="400" height="250" as="geometry" />
        </mxCell>
        <mxCell id="AVDN5haBnFGdri4YZpMs-20" value="" style="rounded=0;whiteSpace=wrap;html=1;strokeWidth=4;sketch=1;curveFitting=1;jiggle=2;fillColor=none;fontSize=30;" parent="1" vertex="1">
          <mxGeometry x="470" y="790" width="230" height="210" as="geometry" />
        </mxCell>
        <mxCell id="AVDN5haBnFGdri4YZpMs-21" value="" style="rounded=0;whiteSpace=wrap;html=1;strokeWidth=4;sketch=1;curveFitting=1;jiggle=2;fillColor=none;fontSize=30;" parent="1" vertex="1">
          <mxGeometry x="800" y="790" width="230" height="210" as="geometry" />
        </mxCell>
        <mxCell id="AVDN5haBnFGdri4YZpMs-22" value="" style="rounded=0;whiteSpace=wrap;html=1;strokeWidth=4;sketch=1;curveFitting=1;jiggle=2;fillColor=none;fontSize=30;" parent="1" vertex="1">
          <mxGeometry x="1284" y="790" width="230" height="210" as="geometry" />
        </mxCell>
        <mxCell id="AVDN5haBnFGdri4YZpMs-23" value="" style="shape=image;verticalLabelPosition=bottom;labelBackgroundColor=default;verticalAlign=top;aspect=fixed;imageAspect=0;image=data:image/svg+xml,PHN2ZyB4bWxucz0iaHR0cDovL3d3dy53My5vcmcvMjAwMC9zdmciIHZpZXdCb3g9IjAgMCAxMjggMTI4IiBkYXRhLW5hbWU9IkxheWVyIDEiIGlkPSJMYXllcl8xIj4mI3hhOyAgPHBhdGggZD0iTTEyNC44OSw5Mi44Yy0uMDYuMS0uMTUuMTktLjE4LjMtMS4yNyw0Ljg2LTQuNSw3LjM4LTkuNTQsNy4zOS03Ljc3LjAxLTE1LjUzLDAtMjMuMywwLTMuMTcsMC02LjMzLDAtOS41OCwwLDAtMi42NC0uMDEtNS4xOSwwLTcuNzUuMDMtNC40Mi0uNzEtOC43LTIuNzgtMTIuNjMtMS4zLTIuNDctMi45My00Ljc2LTQuNDgtNy4yNCwxLjg0LTEuMTUsNC4wNC0xLjk0LDYuMzYtMi40LDIuMzEtLjQ2LDQuNTctLjUsNi45LjIzLDMuOTgsMS4yNiw4LjA5LDEuMzMsMTIuMDYuMDYsMy4yOS0xLjA1LDYuNDUtLjc1LDkuNTQuMyw4LjMxLDIuODEsMTMuMjMsOC42MiwxNC43NiwxNy4yNy4wNS4zLjE1LjYuMjMuOXYzLjU3WiIvPiYjeGE7ICA8cGF0aCBkPSJNMzkuNjIsMTA2LjU4Yy04Ljg4LDAtMTcuNzUsMC0yNi42MywwLTYuMDcsMC05Ljg3LTMuNzktOS44Ni05Ljg1LDAtMy42LS4yMS03LjIuODItMTAuNzMsMi44NC05Ljc3LDExLjg4LTE2LjMzLDIyLjA2LTE1LjkzLjQ5LjAyLDEuMDEuMTksMS40Ny4zOSw4LjEsMy41MSwxNi4yLDMuNTYsMjQuMywwLDEuODItLjgsMy42OS0uNDIsNS41LS4xNywxMC43NywxLjQ4LDE4LjczLDEwLjU0LDE4Ljg4LDIxLjM5LjAzLDEuODIuMDIsMy42NCwwLDUuNDctLjA0LDUuNTMtMy45Miw5LjQyLTkuNDQsOS40My05LjAzLjAyLTE4LjA3LDAtMjcuMSwwWiIvPiYjeGE7ICA8cGF0aCBkPSJNMzkuNjUsMjEuNDFjMTEuODEsMCwyMS4yOSw5LjQ4LDIxLjI5LDIxLjI4LDAsMTEuNzgtOS41MywyMS4zMS0yMS4yOSwyMS4zMS0xMS43NCwwLTIxLjMtOS41Ni0yMS4zLTIxLjMyLDAtMTEuNzcsOS41My0yMS4yOCwyMS4zMS0yMS4yN1oiLz4mI3hhOyAgPHBhdGggZD0iTTk0LjQ3LDY0Yy0xMC4wNi4wMS0xOC4zMi04LjI0LTE4LjMtMTguMzEuMDItMTAuMDIsOC4yMy0xOC4yMiwxOC4yNS0xOC4yNCwxMC4wNy0uMDEsMTguMzMsOC4yNCwxOC4zMSwxOC4zLS4wMiwxMC4wMi04LjIzLDE4LjIzLTE4LjI1LDE4LjI0WiIvPiYjeGE7PC9zdmc+;fontSize=30;" parent="1" vertex="1">
          <mxGeometry x="856" y="1060" width="128" height="128" as="geometry" />
        </mxCell>
        <mxCell id="AVDN5haBnFGdri4YZpMs-25" value="" style="shape=image;verticalLabelPosition=bottom;labelBackgroundColor=default;verticalAlign=top;aspect=fixed;imageAspect=0;image=data:image/svg+xml,PHN2ZyB4bWxucz0iaHR0cDovL3d3dy53My5vcmcvMjAwMC9zdmciIHZpZXdCb3g9IjAgMCAyNTYgMjU2IiBkYXRhLW5hbWU9IkxheWVyIDEiIGlkPSJMYXllcl8xIj4mI3hhOyAgPGcgaWQ9ImRhdGFiYXNlX2ljb24iPiYjeGE7ICAgIDxwYXRoIGQ9Ik0xMjIuOTEsMTguMDhsMTAuMTUtLjA1Yy4zNiwwLC42OS4xNSwxLjA1LjE2LDE3LjYzLjUsMzUuMjksMi44NCw1Mi4wNCw4LjQ3LDEzLjQ4LDQuNTMsMzQuNDksMTQuNTYsMzcuNjksMjkuOTYsMy45NywxOS4xMy0xOS41LDMxLjY4LTM0LjIzLDM3LjEyLTMwLjk5LDExLjQ1LTcxLjMzLDEyLjUxLTEwMy40OCw1LjU3LTE3LjEtMy42OS00Ni40My0xMy41LTUyLjg3LTMxLjY0czE0LjItMzEuNzMsMjguNDgtMzcuOGMxOS4xLTguMTMsNDAuNS0xMS4xLDYxLjE4LTExLjc5WiIvPiYjeGE7ICAgIDxwYXRoIGQ9Ik0yMjQuMTgsMTk2LjcyYy0xLjM1LDE0LjA2LTE5LjgzLDI0LjQ1LTMxLjQ3LDI5LjE4LTM0LjQ2LDE0LjAxLTg0LjQzLDE0LjM0LTExOS43NSwzLjMxLTE0Ljc3LTQuNjEtMzkuODktMTUuODEtNDAuOTMtMzMuODZ2LTMxLjdzMS4wNyw0LjE4LDEuMDcsNC4xOGM1LjY2LDE2Ljc4LDMxLjIxLDI2LjYsNDYuOTEsMzAuNjIsMjkuOCw3LjYxLDY1Ljc5LDcuNjgsOTUuNjIuMTgsMTUuNzctMy45Niw0Mi4xNS0xMy45OCw0Ny42NC0zMC45NWwuOTEtMy41OHYzMi42MVoiLz4mI3hhOyAgICA8cGF0aCBkPSJNMjI0LjE4LDEwNy44Yy0xLjMzLDE0LjU1LTIxLjA3LDI1LjE5LTMzLjEsMjkuODMtMzQuNzksMTMuNDItODMuNzksMTMuNjgtMTE5LjE4LDIuMzYtMTQuNC00LjYxLTM4LjgxLTE1Ljg1LTM5Ljg3LTMzLjR2LTMxLjdzMS4yMiw0LjQ5LDEuMjIsNC40OWM2LjM2LDE3LjU3LDM0LjEyLDI3LjM2LDUwLjc3LDMxLjE2LDI3Ljk5LDYuMzksNjAuMzMsNi4zNyw4OC4zMiwwLDE2LjUyLTMuNzYsNDQuNTMtMTMuNzIsNTAuNzMtMzEuMmwxLjEtNC4xNHYzMi42MVoiLz4mI3hhOyAgICA8cGF0aCBkPSJNMjI0LjE4LDE1Mi4zM2MtMS4zMiwxMy43MS0xOS40OSwyNC4yMS0zMC44NiwyOC44OC0zNC41OCwxNC4xOS04NC42OCwxNC42OS0xMjAuMiwzLjYyLTE0Ljc0LTQuNTktNDAuMDQtMTUuODUtNDEuMDktMzMuODZ2LTMxLjdzMS40MSw1LjA2LDEuNDEsNS4wNmM2LjA4LDE1Ljg2LDMwLjAyLDI1LjIzLDQ1LjIsMjkuMjksMzAuNTEsOC4xNiw2Ny40Miw4LjIxLDk3Ljk5LjI3LDE1LjUxLTQuMDMsNDAuMjktMTMuNTEsNDYuMzMtMjkuODJsMS4yMS00LjQ5djMyLjc2WiIvPiYjeGE7ICA8L2c+JiN4YTs8L3N2Zz4=;fontSize=30;" parent="1" vertex="1">
          <mxGeometry x="1622.5" y="827.5" width="135" height="135" as="geometry" />
        </mxCell>
        <mxCell id="AVDN5haBnFGdri4YZpMs-30" value="" style="rounded=0;whiteSpace=wrap;html=1;fillColor=#caeff6;strokeColor=none;fontSize=30;" parent="1" vertex="1">
          <mxGeometry x="184.06" y="790" width="220" height="210" as="geometry" />
        </mxCell>
        <mxCell id="AVDN5haBnFGdri4YZpMs-32" value="" style="rounded=0;whiteSpace=wrap;html=1;strokeWidth=4;sketch=1;curveFitting=1;jiggle=2;fillColor=none;fontSize=30;" parent="1" vertex="1">
          <mxGeometry x="184.06" y="790" width="220" height="210" as="geometry" />
        </mxCell>
        <mxCell id="AVDN5haBnFGdri4YZpMs-33" value="" style="shape=image;verticalLabelPosition=bottom;labelBackgroundColor=default;verticalAlign=top;aspect=fixed;imageAspect=0;image=data:image/svg+xml,PHN2ZyB4bWxucz0iaHR0cDovL3d3dy53My5vcmcvMjAwMC9zdmciIHZpZXdCb3g9IjAgMCAxMDAwIDgwMCI+JiN4YTsgIDxkZWZzPiYjeGE7ICAgIDxzdHlsZT4mI3hhOyAgICAgIC5jbHMtMSB7JiN4YTsgICAgICAgIHN0cm9rZTogIzAwMDsmI3hhOyAgICAgIH0mI3hhOyYjeGE7ICAgICAgLmNscy0xLCAuY2xzLTIgeyYjeGE7ICAgICAgICBmaWxsOiBub25lOyYjeGE7ICAgICAgICBzdHJva2UtbWl0ZXJsaW1pdDogMTA7JiN4YTsgICAgICAgIHN0cm9rZS13aWR0aDogMTRweDsmI3hhOyAgICAgIH0mI3hhOyYjeGE7ICAgICAgLmNscy0yIHsmI3hhOyAgICAgICAgc3Ryb2tlOiAjMjYyYTM4OyYjeGE7ICAgICAgfSYjeGE7ICAgIDwvc3R5bGU+JiN4YTsgIDwvZGVmcz4mI3hhOyAgPGcgZGF0YS1uYW1lPSJ0YWJsZSAxIGxpbmVzIiBpZD0idGFibGVfMV9saW5lcyI+JiN4YTsgICAgPGc+JiN4YTsgICAgICA8bGluZSB5Mj0iNzEyIiB4Mj0iNDM3LjYiIHkxPSIyODciIHgxPSI0MzcuNiIgY2xhc3M9ImNscy0xIi8+JiN4YTsgICAgICA8bGluZSB5Mj0iNzEyIiB4Mj0iNTUwLjIiIHkxPSIyODciIHgxPSI1NTAuMiIgY2xhc3M9ImNscy0xIi8+JiN4YTsgICAgICA8bGluZSB5Mj0iNzEyIiB4Mj0iNjYyLjgiIHkxPSIyODciIHgxPSI2NjIuOCIgY2xhc3M9ImNscy0xIi8+JiN4YTsgICAgICA8bGluZSB5Mj0iNzEyIiB4Mj0iNzc1LjQiIHkxPSIyODciIHgxPSI3NzUuNCIgY2xhc3M9ImNscy0xIi8+JiN4YTsgICAgPC9nPiYjeGE7ICAgIDxnPiYjeGE7ICAgICAgPGxpbmUgeTI9IjM3Ny40IiB4Mj0iMzIyLjUiIHkxPSIzNzcuNCIgeDE9Ijg4OCIgY2xhc3M9ImNscy0xIi8+JiN4YTsgICAgICA8bGluZSB5Mj0iNDYwLjgiIHgyPSIzMjIuNSIgeTE9IjQ2MC44IiB4MT0iODg4IiBjbGFzcz0iY2xzLTEiLz4mI3hhOyAgICAgIDxsaW5lIHkyPSI1NDQuMiIgeDI9IjMyMi41IiB5MT0iNTQ0LjIiIHgxPSI4ODgiIGNsYXNzPSJjbHMtMSIvPiYjeGE7ICAgICAgPGxpbmUgeTI9IjYyNy42IiB4Mj0iMzIyLjUiIHkxPSI2MjcuNiIgeDE9Ijg4OCIgY2xhc3M9ImNscy0xIi8+JiN4YTsgICAgPC9nPiYjeGE7ICA8L2c+JiN4YTsgIDxnIGRhdGEtbmFtZT0idGFibGUgMSBib3VuZGluZyIgaWQ9InRhYmxlXzFfYm91bmRpbmciPiYjeGE7ICAgIDxwYXRoIGQ9Ik04ODAsMzAxdjQwNEgzMzF2LTQwNGg1NDlNODk0LDI4N0gzMTd2NDMyaDU3N3YtNDMyaDBaIi8+JiN4YTsgICAgPGc+JiN4YTsgICAgICA8cGF0aCBkPSJNMzE3LjUsMzAwLjV2LTYyLjVjMC01LjI0LDQuMjYtOS41LDkuNS05LjVoNTU3YzUuMjQsMCw5LjUsNC4yNiw5LjUsOS41djYyLjVIMzE3LjVaIi8+JiN4YTsgICAgICA8cGF0aCBkPSJNODg0LDIyOWM0Ljk2LDAsOSw0LjA0LDksOXY2MkgzMTh2LTYyYzAtNC45Niw0LjA0LTksOS05aDU1N004ODQsMjI4SDMyN2MtNS41MiwwLTEwLDQuNDgtMTAsMTB2NjNoNTc3di02M2MwLTUuNTItNC40OC0xMC0xMC0xMGgwWiIvPiYjeGE7ICAgIDwvZz4mI3hhOyAgPC9nPiYjeGE7ICA8ZyBkYXRhLW5hbWU9IkxheWVyIDQiIGlkPSJMYXllcl80Ij4mI3hhOyAgICA8bGluZSB5Mj0iNDM0LjQiIHgyPSI2MSIgeTE9IjQzNC40IiB4MT0iMjg3LjA0IiBjbGFzcz0iY2xzLTIiLz4mI3hhOyAgICA8bGluZSB5Mj0iMzU0LjgiIHgyPSI2MSIgeTE9IjM1NC44IiB4MT0iMjg3LjA0IiBjbGFzcz0iY2xzLTIiLz4mI3hhOyAgICA8bGluZSB5Mj0iMjc1LjIiIHgyPSI2MSIgeTE9IjI3NS4yIiB4MT0iMjg3LjA0IiBjbGFzcz0iY2xzLTIiLz4mI3hhOyAgICA8bGluZSB5Mj0iMTk1LjYiIHgyPSI2MSIgeTE9IjE5NiIgeDE9IjYzNCIgY2xhc3M9ImNscy0xIi8+JiN4YTsgIDwvZz4mI3hhOyAgPGcgZGF0YS1uYW1lPSJMYXllciA1IiBpZD0iTGF5ZXJfNSI+JiN4YTsgICAgPGxpbmUgeTI9IjExNiIgeDI9IjYzMSIgeTE9IjIwMyIgeDE9IjYzMSIgY2xhc3M9ImNscy0xIi8+JiN4YTsgICAgPGxpbmUgeTI9IjEyMCIgeDI9IjUxNi4yIiB5MT0iMTk2IiB4MT0iNTE2LjIiIGNsYXNzPSJjbHMtMSIvPiYjeGE7ICAgIDxsaW5lIHkyPSIxMjAiIHgyPSI0MDMuNCIgeTE9IjE5NiIgeDE9IjQwMy40IiBjbGFzcz0iY2xzLTEiLz4mI3hhOyAgICA8bGluZSB5Mj0iMTIwIiB4Mj0iMTc3LjgiIHkxPSI1MTYiIHgxPSIxNzcuOCIgY2xhc3M9ImNscy0xIi8+JiN4YTsgIDwvZz4mI3hhOyAgPGcgZGF0YS1uYW1lPSJMYXllciAzIiBpZD0iTGF5ZXJfMyI+JiN4YTsgICAgPHBhdGggZD0iTTI4MCwxMjR2MzgzSDcxVjEyNGgyMDlNMjk0LDExMEg1N3Y0MTFoMjM3VjExMGgwWiIvPiYjeGE7ICAgIDxnPiYjeGE7ICAgICAgPHBhdGggZD0iTTU3LjUsMTIzLjV2LTYyLjVjMC01LjI0LDQuMjYtOS41LDkuNS05LjVoNTYxYzUuMjQsMCw5LjUsNC4yNiw5LjUsOS41djYyLjVINTcuNVoiLz4mI3hhOyAgICAgIDxwYXRoIGQ9Ik02MjgsNTJjNC45NiwwLDksNC4wNCw5LDl2NjJINTh2LTYyYzAtNC45Niw0LjA0LTksOS05aDU2MU02MjgsNTFINjdjLTUuNTIsMC0xMCw0LjQ4LTEwLDEwdjYzaDU4MXYtNjNjMC01LjUyLTQuNDgtMTAtMTAtMTBoMFoiLz4mI3hhOyAgICA8L2c+JiN4YTsgIDwvZz4mI3hhOzwvc3ZnPg==;fontSize=30;" parent="1" vertex="1">
          <mxGeometry x="208.12" y="825" width="171.88" height="137.5" as="geometry" />
        </mxCell>
        <mxCell id="AVDN5haBnFGdri4YZpMs-34" value="" style="shape=image;verticalLabelPosition=bottom;labelBackgroundColor=default;verticalAlign=top;aspect=fixed;imageAspect=0;image=data:image/svg+xml,PHN2ZyB4bWxucz0iaHR0cDovL3d3dy53My5vcmcvMjAwMC9zdmciIHZpZXdCb3g9IjAgMCAzMjAgMzIwIiBkYXRhLW5hbWU9IkxheWVyIDEiIGlkPSJMYXllcl8xIj4mI3hhOyAgPGRlZnM+JiN4YTsgICAgPHN0eWxlPiYjeGE7ICAgICAgLmNscy0xIHsmI3hhOyAgICAgICAgZmlsbDogI2ZmNjMxMDsmI3hhOyAgICAgIH0mI3hhOyAgICA8L3N0eWxlPiYjeGE7ICA8L2RlZnM+JiN4YTsgIDxwYXRoIGQ9Ik0xNTMuNTksMjI1LjI0djEyLjU3aDcxLjUxdjM0Ljg4Yy0uNDEsOC4yMS0xLjk4LDE2LjQxLTguMjUsMjIuMi0xMS44NiwxMC45NS00MC40NSwxMi45NS01Ni4xLDEzLjQ1LTExLjU3LjM3LTIwLjI1LS42Ny0zMS41My0zLjAzLTE3LjUtMy42Ny0zMy4xNC0xNS44My0zNC4zOS0zNC43N3YtNjkuOTZjMS4yOS0xOS40NiwxNi4wNi0zMy40NiwzNS40Ni0zNC4yOCwyMS43Ny0uOTIsNDQuMTguNzEsNjYuMDIsMCwyMi43LTIuMDEsNDEuMDUtMjIuMzMsNDEuMTctNDUuMDh2LTM4LjYxczI5LjU3LDAsMjkuNTcsMGMyOC44NCwxLjM4LDM2LjU1LDI5LjQxLDQwLjExLDUzLjIxLDIuNzksMTguNjgsMS4xMiwzNy45Mi00LjE2LDU2LjAzLTUuODcsMjAuMTMtMjIuNDYsMzMuMDgtNDMuNjEsMzMuNDFoLTEwNS44MVpNMTk1LjU5LDI1My43OGMtMTAuNzguMTMtMTcuMDIsMTIuMzktMTAuNzMsMjEuMjMsNi45Myw5Ljc0LDIyLjI5LDYuMDIsMjQuMDgtNS43MSwxLjIyLTguMDItNS4xNC0xNS42MS0xMy4zNS0xNS41MVoiIGNsYXNzPSJjbHMtMSIvPiYjeGE7ICA8cGF0aCBkPSJNOTQuODQsODIuMjF2LTM0LjI5Yy43NC0xOS4wNSw4LjU5LTI2Ljc0LDI2LjQ4LTMxLjQ3LDExLjAyLTIuOTEsMjQuNjgtNC40MywzNi4wOC00Ljc4LDExLjg1LS4zNywyMS40MS42NywzMi45MiwzLjA1LDE2Ljc2LDMuNDcsMzEuOTYsMTQuMzQsMzQuNTUsMzIuMjUuNTIsMjQuMjYuMDcsNDguNTkuMjMsNzIuODctMS4wMywxOC4xNC0xNS43MSwzMi45MS0zMy44OSwzMy44OWgtNjYuNjFjLTIxLjg4LDEuNDItNDAuMTcsMjAuMDItNDEuOTYsNDEuNzN2NDEuOTVzLTMwLjc1LDAtMzAuNzUsMGMtMTguNy0xLjAxLTI5LjYxLTE1LjM2LTM0LjU3LTMyLjAzLTcuNTgtMjUuNTEtNy44NS01MS40NC0uMzktNzcuMDEsNS41OS0xOS4xNiwyMC44OS0zMi4xOCw0MS4wNS0zMy40MWgxMDguMzZzMC0xMi43NiwwLTEyLjc2aC03MS41MVpNMTIyLjMxLDM5LjYzYy00LjkyLjU2LTkuNSw0LjY3LTEwLjg2LDkuMzgtMy4zNiwxMS42NCw4Ljk4LDIxLjU0LDE5LjU1LDE1LjQyLDEyLjQ2LTcuMjEsNi4yNi0yNi40OS04LjY5LTI0LjhaIiBjbGFzcz0iY2xzLTEiLz4mI3hhOzwvc3ZnPg==;fontSize=30;" parent="1" vertex="1">
          <mxGeometry x="530" y="853.75" width="110" height="110" as="geometry" />
        </mxCell>
        <mxCell id="AVDN5haBnFGdri4YZpMs-35" value="" style="endArrow=blockThin;html=1;rounded=0;strokeWidth=4;endFill=1;fontSize=30;entryX=0.304;entryY=-0.007;entryDx=0;entryDy=0;entryPerimeter=0;exitX=0.119;exitY=1.005;exitDx=0;exitDy=0;exitPerimeter=0;" parent="1" source="AVDN5haBnFGdri4YZpMs-5" target="AVDN5haBnFGdri4YZpMs-20" edge="1">
          <mxGeometry width="50" height="50" relative="1" as="geometry">
            <mxPoint x="540" y="450" as="sourcePoint" />
            <mxPoint x="540" y="780" as="targetPoint" />
          </mxGeometry>
        </mxCell>
        <mxCell id="AVDN5haBnFGdri4YZpMs-36" value="Access data quality definitions to validate local data." style="text;html=1;strokeColor=none;fillColor=none;align=right;verticalAlign=middle;whiteSpace=wrap;rounded=0;fontSize=30;" parent="1" vertex="1">
          <mxGeometry x="260" y="530" width="260" height="140" as="geometry" />
        </mxCell>
        <mxCell id="AVDN5haBnFGdri4YZpMs-37" value="" style="endArrow=blockThin;html=1;rounded=0;strokeWidth=4;endFill=1;entryX=0.5;entryY=0;entryDx=0;entryDy=0;exitX=0.883;exitY=1;exitDx=0;exitDy=0;exitPerimeter=0;fontSize=30;" parent="1" source="AVDN5haBnFGdri4YZpMs-5" target="AVDN5haBnFGdri4YZpMs-22" edge="1">
          <mxGeometry width="50" height="50" relative="1" as="geometry">
            <mxPoint x="1190" y="430" as="sourcePoint" />
            <mxPoint x="1397.5" y="715" as="targetPoint" />
          </mxGeometry>
        </mxCell>
        <mxCell id="AVDN5haBnFGdri4YZpMs-38" value="Access&lt;br style=&quot;font-size: 30px;&quot;&gt;and apply data quality definitions in a pipeline." style="text;html=1;strokeColor=none;fillColor=none;align=left;verticalAlign=middle;whiteSpace=wrap;rounded=0;fontSize=30;" parent="1" vertex="1">
          <mxGeometry x="1150.5" y="570" width="181" height="210" as="geometry" />
        </mxCell>
        <mxCell id="AVDN5haBnFGdri4YZpMs-39" value="Programmatically define data quality definitions and store in GX Cloud." style="text;html=1;strokeColor=none;fillColor=none;align=right;verticalAlign=middle;whiteSpace=wrap;rounded=0;fontSize=30;" parent="1" vertex="1">
          <mxGeometry x="576" y="570" width="268" height="140" as="geometry" />
        </mxCell>
        <mxCell id="AVDN5haBnFGdri4YZpMs-40" value="Persist data validation results in GX Cloud." style="text;html=1;strokeColor=none;fillColor=none;align=left;verticalAlign=middle;whiteSpace=wrap;rounded=0;fontSize=30;" parent="1" vertex="1">
          <mxGeometry x="1320" y="460" width="230" height="130" as="geometry" />
        </mxCell>
        <mxCell id="AVDN5haBnFGdri4YZpMs-41" value="" style="endArrow=blockThin;html=1;rounded=0;strokeWidth=4;endFill=1;entryX=1.016;entryY=0.398;entryDx=0;entryDy=0;entryPerimeter=0;exitX=-0.017;exitY=0.4;exitDx=0;exitDy=0;exitPerimeter=0;fontSize=30;" parent="1" source="AVDN5haBnFGdri4YZpMs-20" target="AVDN5haBnFGdri4YZpMs-32" edge="1">
          <mxGeometry width="50" height="50" relative="1" as="geometry">
            <mxPoint x="460" y="850.5" as="sourcePoint" />
            <mxPoint x="390" y="850" as="targetPoint" />
          </mxGeometry>
        </mxCell>
        <mxCell id="AVDN5haBnFGdri4YZpMs-42" value="" style="endArrow=blockThin;html=1;rounded=0;strokeWidth=4;endFill=1;exitX=1.011;exitY=0.578;exitDx=0;exitDy=0;exitPerimeter=0;entryX=-0.015;entryY=0.576;entryDx=0;entryDy=0;entryPerimeter=0;fontSize=30;" parent="1" source="AVDN5haBnFGdri4YZpMs-32" target="AVDN5haBnFGdri4YZpMs-20" edge="1">
          <mxGeometry width="50" height="50" relative="1" as="geometry">
            <mxPoint x="390" y="894.5" as="sourcePoint" />
            <mxPoint x="460" y="894.5" as="targetPoint" />
          </mxGeometry>
        </mxCell>
        <mxCell id="AVDN5haBnFGdri4YZpMs-43" value="" style="endArrow=blockThin;html=1;rounded=0;strokeWidth=4;endFill=1;exitX=1.003;exitY=0.298;exitDx=0;exitDy=0;exitPerimeter=0;fontSize=30;entryX=-0.004;entryY=0.4;entryDx=0;entryDy=0;entryPerimeter=0;" parent="1" edge="1">
          <mxGeometry width="50" height="50" relative="1" as="geometry">
            <mxPoint x="1192.1399999999999" y="250.00000000000003" as="sourcePoint" />
            <mxPoint x="1400" y="250.4" as="targetPoint" />
          </mxGeometry>
        </mxCell>
        <mxCell id="AVDN5haBnFGdri4YZpMs-44" value="" style="endArrow=blockThin;html=1;rounded=0;strokeWidth=4;endFill=1;entryX=1.013;entryY=0.548;entryDx=0;entryDy=0;entryPerimeter=0;fontSize=30;exitX=0;exitY=0.6;exitDx=0;exitDy=0;exitPerimeter=0;" parent="1" target="AVDN5haBnFGdri4YZpMs-4" edge="1" source="AVDN5haBnFGdri4YZpMs-19">
          <mxGeometry width="50" height="50" relative="1" as="geometry">
            <mxPoint x="1360" y="290" as="sourcePoint" />
            <mxPoint x="1300" y="290" as="targetPoint" />
          </mxGeometry>
        </mxCell>
        <mxCell id="AVDN5haBnFGdri4YZpMs-50" value="" style="endArrow=blockThin;html=1;rounded=0;strokeWidth=4;endFill=1;entryX=0.942;entryY=1.003;entryDx=0;entryDy=0;entryPerimeter=0;fontSize=30;exitX=0.75;exitY=0;exitDx=0;exitDy=0;" parent="1" edge="1">
          <mxGeometry width="50" height="50" relative="1" as="geometry">
            <mxPoint x="1441.5" y="790" as="sourcePoint" />
            <mxPoint x="1216.2799999999997" y="420.92999999999984" as="targetPoint" />
          </mxGeometry>
        </mxCell>
        <mxCell id="AVDN5haBnFGdri4YZpMs-51" value="GX Cloud serves as a single source of data quality definitions and the results of data validation." style="text;html=1;strokeColor=none;fillColor=none;align=left;verticalAlign=middle;whiteSpace=wrap;rounded=0;fontSize=30;" parent="1" vertex="1">
          <mxGeometry x="470" y="18" width="682.5" height="60" as="geometry" />
        </mxCell>
        <mxCell id="AVDN5haBnFGdri4YZpMs-55" value="" style="endArrow=blockThin;html=1;rounded=0;strokeWidth=4;endFill=1;fontSize=30;exitX=0.391;exitY=-0.005;exitDx=0;exitDy=0;exitPerimeter=0;" parent="1" edge="1" source="AVDN5haBnFGdri4YZpMs-21">
          <mxGeometry width="50" height="50" relative="1" as="geometry">
            <mxPoint x="890" y="780" as="sourcePoint" />
            <mxPoint x="890" y="420" as="targetPoint" />
          </mxGeometry>
        </mxCell>
        <mxCell id="AVDN5haBnFGdri4YZpMs-56" value="Trigger validation for data connected to GX Cloud." style="text;html=1;strokeColor=none;fillColor=none;align=left;verticalAlign=middle;whiteSpace=wrap;rounded=0;fontSize=30;" parent="1" vertex="1">
          <mxGeometry x="904" y="460" width="260" height="120" as="geometry" />
        </mxCell>
        <mxCell id="AVDN5haBnFGdri4YZpMs-58" value="" style="endArrow=blockThin;html=1;rounded=0;strokeWidth=4;endFill=1;entryX=1.004;entryY=0.571;entryDx=0;entryDy=0;entryPerimeter=0;exitX=-0.005;exitY=0.574;exitDx=0;exitDy=0;exitPerimeter=0;fontSize=30;" parent="1" source="AVDN5haBnFGdri4YZpMs-28" edge="1" target="AVDN5haBnFGdri4YZpMs-22">
          <mxGeometry width="50" height="50" relative="1" as="geometry">
            <mxPoint x="1572" y="894" as="sourcePoint" />
            <mxPoint x="1514" y="894" as="targetPoint" />
          </mxGeometry>
        </mxCell>
        <mxCell id="AVDN5haBnFGdri4YZpMs-59" value="" style="endArrow=blockThin;html=1;rounded=0;strokeWidth=4;endFill=1;exitX=1.011;exitY=0.578;exitDx=0;exitDy=0;exitPerimeter=0;entryX=-0.015;entryY=0.576;entryDx=0;entryDy=0;entryPerimeter=0;fontSize=30;" parent="1" edge="1">
          <mxGeometry width="50" height="50" relative="1" as="geometry">
            <mxPoint x="1514" y="874" as="sourcePoint" />
            <mxPoint x="1575" y="873" as="targetPoint" />
          </mxGeometry>
        </mxCell>
        <mxCell id="AVDN5haBnFGdri4YZpMs-4" value="GX Cloud backend" style="rounded=1;whiteSpace=wrap;html=1;fontSize=30;strokeColor=#ff6310;strokeWidth=8;fillColor=#ffd4be;" parent="1" vertex="1">
          <mxGeometry x="1010" y="180" width="180" height="200" as="geometry" />
        </mxCell>
        <mxCell id="AVDN5haBnFGdri4YZpMs-2" value="GX Cloud&lt;br style=&quot;font-size: 30px;&quot;&gt;web UI" style="rounded=1;whiteSpace=wrap;html=1;fontSize=30;strokeColor=#ff6310;strokeWidth=8;fillColor=#ffd4be;" parent="1" vertex="1">
          <mxGeometry x="580" y="180" width="170" height="200" as="geometry" />
        </mxCell>
        <mxCell id="c1XWS6Pq9zEYKXr7Xoy3-1" value="GX Core" style="text;html=1;strokeColor=none;fillColor=none;align=left;verticalAlign=top;whiteSpace=wrap;rounded=0;fontSize=30;spacing=4;spacingLeft=9;" vertex="1" parent="1">
          <mxGeometry x="470" y="790" width="190" height="50" as="geometry" />
        </mxCell>
        <mxCell id="c1XWS6Pq9zEYKXr7Xoy3-2" value="" style="shape=image;verticalLabelPosition=bottom;labelBackgroundColor=default;verticalAlign=top;aspect=fixed;imageAspect=0;image=data:image/svg+xml,PHN2ZyB4bWxucz0iaHR0cDovL3d3dy53My5vcmcvMjAwMC9zdmciIHZpZXdCb3g9IjAgMCAzMjAgMzIwIiBkYXRhLW5hbWU9IkxheWVyIDEiIGlkPSJMYXllcl8xIj4mI3hhOyAgPGRlZnM+JiN4YTsgICAgPHN0eWxlPiYjeGE7ICAgICAgLmNscy0xIHsmI3hhOyAgICAgICAgZmlsbDogI2ZmNjMxMDsmI3hhOyAgICAgIH0mI3hhOyAgICA8L3N0eWxlPiYjeGE7ICA8L2RlZnM+JiN4YTsgIDxwYXRoIGQ9Ik0xNTMuNTksMjI1LjI0djEyLjU3aDcxLjUxdjM0Ljg4Yy0uNDEsOC4yMS0xLjk4LDE2LjQxLTguMjUsMjIuMi0xMS44NiwxMC45NS00MC40NSwxMi45NS01Ni4xLDEzLjQ1LTExLjU3LjM3LTIwLjI1LS42Ny0zMS41My0zLjAzLTE3LjUtMy42Ny0zMy4xNC0xNS44My0zNC4zOS0zNC43N3YtNjkuOTZjMS4yOS0xOS40NiwxNi4wNi0zMy40NiwzNS40Ni0zNC4yOCwyMS43Ny0uOTIsNDQuMTguNzEsNjYuMDIsMCwyMi43LTIuMDEsNDEuMDUtMjIuMzMsNDEuMTctNDUuMDh2LTM4LjYxczI5LjU3LDAsMjkuNTcsMGMyOC44NCwxLjM4LDM2LjU1LDI5LjQxLDQwLjExLDUzLjIxLDIuNzksMTguNjgsMS4xMiwzNy45Mi00LjE2LDU2LjAzLTUuODcsMjAuMTMtMjIuNDYsMzMuMDgtNDMuNjEsMzMuNDFoLTEwNS44MVpNMTk1LjU5LDI1My43OGMtMTAuNzguMTMtMTcuMDIsMTIuMzktMTAuNzMsMjEuMjMsNi45Myw5Ljc0LDIyLjI5LDYuMDIsMjQuMDgtNS43MSwxLjIyLTguMDItNS4xNC0xNS42MS0xMy4zNS0xNS41MVoiIGNsYXNzPSJjbHMtMSIvPiYjeGE7ICA8cGF0aCBkPSJNOTQuODQsODIuMjF2LTM0LjI5Yy43NC0xOS4wNSw4LjU5LTI2Ljc0LDI2LjQ4LTMxLjQ3LDExLjAyLTIuOTEsMjQuNjgtNC40MywzNi4wOC00Ljc4LDExLjg1LS4zNywyMS40MS42NywzMi45MiwzLjA1LDE2Ljc2LDMuNDcsMzEuOTYsMTQuMzQsMzQuNTUsMzIuMjUuNTIsMjQuMjYuMDcsNDguNTkuMjMsNzIuODctMS4wMywxOC4xNC0xNS43MSwzMi45MS0zMy44OSwzMy44OWgtNjYuNjFjLTIxLjg4LDEuNDItNDAuMTcsMjAuMDItNDEuOTYsNDEuNzN2NDEuOTVzLTMwLjc1LDAtMzAuNzUsMGMtMTguNy0xLjAxLTI5LjYxLTE1LjM2LTM0LjU3LTMyLjAzLTcuNTgtMjUuNTEtNy44NS01MS40NC0uMzktNzcuMDEsNS41OS0xOS4xNiwyMC44OS0zMi4xOCw0MS4wNS0zMy40MWgxMDguMzZzMC0xMi43NiwwLTEyLjc2aC03MS41MVpNMTIyLjMxLDM5LjYzYy00LjkyLjU2LTkuNSw0LjY3LTEwLjg2LDkuMzgtMy4zNiwxMS42NCw4Ljk4LDIxLjU0LDE5LjU1LDE1LjQyLDEyLjQ2LTcuMjEsNi4yNi0yNi40OS04LjY5LTI0LjhaIiBjbGFzcz0iY2xzLTEiLz4mI3hhOzwvc3ZnPg==;fontSize=30;" vertex="1" parent="1">
          <mxGeometry x="860" y="853.75" width="110" height="110" as="geometry" />
        </mxCell>
        <mxCell id="c1XWS6Pq9zEYKXr7Xoy3-3" value="GX Core" style="text;html=1;strokeColor=none;fillColor=none;align=left;verticalAlign=top;whiteSpace=wrap;rounded=0;fontSize=30;spacing=4;spacingLeft=9;" vertex="1" parent="1">
          <mxGeometry x="800" y="790" width="190" height="50" as="geometry" />
        </mxCell>
        <mxCell id="c1XWS6Pq9zEYKXr7Xoy3-4" value="" style="shape=image;verticalLabelPosition=bottom;labelBackgroundColor=default;verticalAlign=top;aspect=fixed;imageAspect=0;image=data:image/svg+xml,PHN2ZyB4bWxucz0iaHR0cDovL3d3dy53My5vcmcvMjAwMC9zdmciIHZpZXdCb3g9IjAgMCAzMjAgMzIwIiBkYXRhLW5hbWU9IkxheWVyIDEiIGlkPSJMYXllcl8xIj4mI3hhOyAgPGRlZnM+JiN4YTsgICAgPHN0eWxlPiYjeGE7ICAgICAgLmNscy0xIHsmI3hhOyAgICAgICAgZmlsbDogI2ZmNjMxMDsmI3hhOyAgICAgIH0mI3hhOyAgICA8L3N0eWxlPiYjeGE7ICA8L2RlZnM+JiN4YTsgIDxwYXRoIGQ9Ik0xNTMuNTksMjI1LjI0djEyLjU3aDcxLjUxdjM0Ljg4Yy0uNDEsOC4yMS0xLjk4LDE2LjQxLTguMjUsMjIuMi0xMS44NiwxMC45NS00MC40NSwxMi45NS01Ni4xLDEzLjQ1LTExLjU3LjM3LTIwLjI1LS42Ny0zMS41My0zLjAzLTE3LjUtMy42Ny0zMy4xNC0xNS44My0zNC4zOS0zNC43N3YtNjkuOTZjMS4yOS0xOS40NiwxNi4wNi0zMy40NiwzNS40Ni0zNC4yOCwyMS43Ny0uOTIsNDQuMTguNzEsNjYuMDIsMCwyMi43LTIuMDEsNDEuMDUtMjIuMzMsNDEuMTctNDUuMDh2LTM4LjYxczI5LjU3LDAsMjkuNTcsMGMyOC44NCwxLjM4LDM2LjU1LDI5LjQxLDQwLjExLDUzLjIxLDIuNzksMTguNjgsMS4xMiwzNy45Mi00LjE2LDU2LjAzLTUuODcsMjAuMTMtMjIuNDYsMzMuMDgtNDMuNjEsMzMuNDFoLTEwNS44MVpNMTk1LjU5LDI1My43OGMtMTAuNzguMTMtMTcuMDIsMTIuMzktMTAuNzMsMjEuMjMsNi45Myw5Ljc0LDIyLjI5LDYuMDIsMjQuMDgtNS43MSwxLjIyLTguMDItNS4xNC0xNS42MS0xMy4zNS0xNS41MVoiIGNsYXNzPSJjbHMtMSIvPiYjeGE7ICA8cGF0aCBkPSJNOTQuODQsODIuMjF2LTM0LjI5Yy43NC0xOS4wNSw4LjU5LTI2Ljc0LDI2LjQ4LTMxLjQ3LDExLjAyLTIuOTEsMjQuNjgtNC40MywzNi4wOC00Ljc4LDExLjg1LS4zNywyMS40MS42NywzMi45MiwzLjA1LDE2Ljc2LDMuNDcsMzEuOTYsMTQuMzQsMzQuNTUsMzIuMjUuNTIsMjQuMjYuMDcsNDguNTkuMjMsNzIuODctMS4wMywxOC4xNC0xNS43MSwzMi45MS0zMy44OSwzMy44OWgtNjYuNjFjLTIxLjg4LDEuNDItNDAuMTcsMjAuMDItNDEuOTYsNDEuNzN2NDEuOTVzLTMwLjc1LDAtMzAuNzUsMGMtMTguNy0xLjAxLTI5LjYxLTE1LjM2LTM0LjU3LTMyLjAzLTcuNTgtMjUuNTEtNy44NS01MS40NC0uMzktNzcuMDEsNS41OS0xOS4xNiwyMC44OS0zMi4xOCw0MS4wNS0zMy40MWgxMDguMzZzMC0xMi43NiwwLTEyLjc2aC03MS41MVpNMTIyLjMxLDM5LjYzYy00LjkyLjU2LTkuNSw0LjY3LTEwLjg2LDkuMzgtMy4zNiwxMS42NCw4Ljk4LDIxLjU0LDE5LjU1LDE1LjQyLDEyLjQ2LTcuMjEsNi4yNi0yNi40OS04LjY5LTI0LjhaIiBjbGFzcz0iY2xzLTEiLz4mI3hhOzwvc3ZnPg==;fontSize=30;" vertex="1" parent="1">
          <mxGeometry x="1344" y="853.75" width="110" height="110" as="geometry" />
        </mxCell>
        <mxCell id="c1XWS6Pq9zEYKXr7Xoy3-5" value="GX Core" style="text;html=1;strokeColor=none;fillColor=none;align=left;verticalAlign=top;whiteSpace=wrap;rounded=0;fontSize=30;spacing=4;spacingLeft=9;" vertex="1" parent="1">
          <mxGeometry x="1284" y="790" width="190" height="50" as="geometry" />
        </mxCell>
        <mxCell id="c1XWS6Pq9zEYKXr7Xoy3-6" value="" style="endArrow=blockThin;html=1;rounded=0;strokeWidth=4;endFill=1;fontSize=30;exitX=0.391;exitY=-0.005;exitDx=0;exitDy=0;exitPerimeter=0;" edge="1" parent="1">
          <mxGeometry width="50" height="50" relative="1" as="geometry">
            <mxPoint x="860" y="789" as="sourcePoint" />
            <mxPoint x="860" y="420" as="targetPoint" />
          </mxGeometry>
        </mxCell>
      </root>
    </mxGraphModel>
  </diagram>
</mxfile>
